<svg width="24" height="25" viewBox="0 0 24 25" fill="none" xmlns="http://www.w3.org/2000/svg">
<g id="Logo">
<path id="Logo_2" d="M8.60118 0.00575176C8.68395 0.00559168 8.76673 0.00541016 8.84951 0.00520917C9.07157 0.00474387 9.29362 0.00461351 9.51568 0.00457926C9.655 0.00454106 9.79433 0.00442669 9.93365 0.00428619C10.4213 0.00379501 10.909 0.00357504 11.3967 0.00361722C11.8488 0.00364926 12.3008 0.00308591 12.7529 0.00224478C13.1434 0.00154455 13.5338 0.00126184 13.9243 0.00129579C14.1565 0.00130928 14.3887 0.00116295 14.6209 0.000593251C14.8393 7.17153e-05 15.0578 7.65791e-05 15.2762 0.000460859C15.3557 0.000515931 15.4351 0.000394797 15.5145 6.8462e-05C16.9742 -0.0055336 18.3394 0.332633 19.6233 1.02641C19.7092 1.0727 19.7092 1.0727 19.7968 1.11992C21.7495 2.21718 23.0638 4.0679 23.6964 6.18929C23.8466 6.73111 23.9467 7.29451 23.9503 7.85684C23.9506 7.8932 23.9509 7.92956 23.9512 7.96702C23.9522 8.08788 23.9528 8.20874 23.9533 8.3296C23.9539 8.41669 23.9546 8.50378 23.9552 8.59087C23.9569 8.82695 23.9582 9.06304 23.9595 9.29913C23.9606 9.497 23.9618 9.69487 23.9631 9.89274C23.966 10.3605 23.9687 10.8283 23.9713 11.296C23.9739 11.7761 23.9769 12.2561 23.9801 12.7362C23.9828 13.15 23.9854 13.5639 23.9877 13.9777C23.9891 14.2241 23.9906 14.4705 23.9922 14.7169C24.0101 17.3616 24.0101 17.3616 23.8449 18.1361C23.8355 18.1825 23.8261 18.2289 23.8164 18.2767C23.6929 18.8668 23.513 19.4104 23.2485 19.952C23.2174 20.0186 23.1864 20.0852 23.1554 20.1519C22.6537 21.2126 21.8527 22.2902 20.9028 22.9907C20.8676 22.9907 20.8324 22.9907 20.7962 22.9907C20.7962 23.0259 20.7962 23.0611 20.7962 23.0974C20.7214 23.1582 20.7214 23.1582 20.6167 23.2248C20.5589 23.2618 20.5589 23.2618 20.5 23.2996C20.4592 23.3252 20.4184 23.3508 20.3763 23.3772C20.3376 23.402 20.2988 23.4269 20.2589 23.4524C20.1364 23.5304 20.0132 23.6072 19.8899 23.6838C19.8472 23.7108 19.8044 23.7378 19.7604 23.7656C19.448 23.9592 19.1311 24.1132 18.7903 24.2502C18.7396 24.2708 18.6888 24.2914 18.6365 24.3126C17.215 24.8749 15.7219 24.8123 14.2194 24.814C14.0862 24.8141 13.953 24.8144 13.8198 24.8146C13.4008 24.8153 12.9817 24.8158 12.5627 24.8161C12.0831 24.8163 11.6036 24.8172 11.1241 24.8188C10.7503 24.8199 10.3765 24.8205 10.0027 24.8205C9.78085 24.8206 9.55897 24.8209 9.33709 24.8219C8.23727 24.8264 7.15884 24.8195 6.09554 24.4968C6.04934 24.4831 6.00315 24.4694 5.95556 24.4553C4.71059 24.0742 3.40151 23.3697 2.51034 22.4043C2.51034 22.3691 2.51034 22.3339 2.51034 22.2977C2.47516 22.2977 2.43997 22.2977 2.40372 22.2977C2.40372 22.2625 2.40372 22.2273 2.40372 22.1911C2.36854 22.1911 2.33335 22.1911 2.2971 22.1911C2.12329 22.0075 1.97184 21.8045 1.8173 21.6046C1.77455 21.5499 1.73181 21.4952 1.68777 21.4389C0.982719 20.5099 0.506612 19.4435 0.227948 18.316C0.216893 18.2717 0.205837 18.2274 0.194447 18.1818C0.0455781 17.5401 0.049435 16.8817 0.0453802 16.2262C0.044693 16.1435 0.0439863 16.0609 0.0432619 15.9782C0.0413804 15.7554 0.0398122 15.5326 0.0383364 15.3098C0.0373962 15.1698 0.0363905 15.0297 0.035364 14.8896C0.0317706 14.3984 0.028449 13.9072 0.0253624 13.4159C0.022505 12.9624 0.0190323 12.5088 0.0152689 12.0553C0.0120412 11.6627 0.00927743 11.2701 0.00684948 10.8775C0.00540015 10.6445 0.00377922 10.4114 0.00167745 10.1784C-0.021854 7.51527 0.182232 5.2112 1.8983 3.04746C1.96382 2.96292 2.02453 2.87468 2.08385 2.78569C2.11904 2.78569 2.15422 2.78569 2.19048 2.78569C2.20278 2.75614 2.21508 2.72659 2.22775 2.69614C2.91551 1.46934 4.82308 0.624604 6.08791 0.246473C6.91449 0.0142186 7.74781 0.00541546 8.60118 0.00575176ZM6.45539 1.13304C6.41929 1.14289 6.3832 1.15274 6.34601 1.16289C5.8342 1.3056 5.36632 1.52427 4.89988 1.77413C4.8133 1.82044 4.72601 1.86542 4.63864 1.91022C3.99747 2.25708 3.28601 2.79735 2.83021 3.37212C2.83021 3.4073 2.83021 3.44249 2.83021 3.47874C2.79503 3.47874 2.75984 3.47874 2.72359 3.47874C2.60308 3.60915 2.50372 3.75769 2.40039 3.9019C2.36932 3.94525 2.33826 3.98861 2.30625 4.03328C1.27349 5.50329 0.954394 7.00925 0.959106 8.77886C0.959206 8.88918 0.959282 8.9995 0.959335 9.10982C0.959537 9.39842 0.96006 9.68702 0.960652 9.97562C0.9612 10.2708 0.961441 10.566 0.96171 10.8612C0.962279 11.4392 0.963188 12.0171 0.964313 12.595C1.10162 12.4164 1.20924 12.233 1.3175 12.0352C1.56613 11.5905 1.86247 11.1899 2.19381 10.8024C2.30833 10.6892 2.30833 10.6892 2.2971 10.5692C2.33228 10.5692 2.36747 10.5692 2.40372 10.5692C2.40372 10.534 2.40372 10.4988 2.40372 10.4625C2.43891 10.4625 2.47409 10.4625 2.51034 10.4625C2.51034 10.4274 2.51034 10.3922 2.51034 10.3559C2.54244 10.3416 2.57453 10.3272 2.6076 10.3124C2.72461 10.2487 2.78591 10.1914 2.87353 10.0927C4.11594 8.81842 6.08811 8.03675 7.84546 7.99537C7.97962 7.99413 8.11379 7.99344 8.24796 7.99321C8.32265 7.99272 8.39735 7.99218 8.47204 7.99159C8.67224 7.99015 8.87243 7.98933 9.07263 7.98864C9.28281 7.9878 9.49298 7.98637 9.70316 7.98501C10.1 7.98253 10.4969 7.98056 10.8937 7.97879C11.346 7.97674 11.7983 7.97411 12.2506 7.97143C13.1799 7.96595 14.1092 7.96118 15.0385 7.9569C15.0232 7.78852 15.0073 7.62021 14.9913 7.4519C14.987 7.40482 14.9827 7.35773 14.9783 7.30922C14.8484 5.96189 14.2607 4.71586 13.3859 3.69199C13.3616 3.66322 13.3373 3.63445 13.3122 3.60481C12.9203 3.14603 12.4924 2.76062 11.9998 2.41251C11.9682 2.3902 11.9367 2.36789 11.9041 2.34491C11.3103 1.9338 10.6626 1.6393 10.0018 1.35214C9.89429 1.30484 9.78817 1.25433 9.68261 1.2028C9.41197 1.10262 9.13959 1.06496 8.8544 1.02641C8.8019 1.01928 8.7494 1.01215 8.6953 1.00481C7.90767 0.906614 7.21979 0.915386 6.45539 1.13304ZM11.4667 0.919791C11.606 1.02604 11.7409 1.11577 11.8965 1.19634C12.1571 1.33746 12.3888 1.50965 12.6243 1.68885C12.7361 1.78285 12.7361 1.78286 12.8528 1.77277C12.8528 1.80796 12.8528 1.84314 12.8528 1.8794C12.926 1.94111 13.0022 1.99932 13.0793 2.05599C13.6956 2.53928 14.1736 3.15469 14.612 3.79861C14.633 3.82891 14.6539 3.85922 14.6755 3.89045C15.6699 5.35196 15.9483 7.03797 15.9558 8.76708C15.9563 8.8444 15.9568 8.92173 15.9574 8.99906C15.9588 9.20619 15.9599 9.41332 15.961 9.62046C15.9622 9.83796 15.9636 10.0555 15.9651 10.273C15.9677 10.6836 15.9701 11.0942 15.9724 11.5049C15.9751 11.9729 15.978 12.4409 15.9809 12.9089C15.987 13.8705 15.9927 14.8321 15.9981 15.7937C16.1177 15.7855 16.2373 15.7773 16.3569 15.769C16.4567 15.7621 16.4567 15.7621 16.5586 15.755C18.3715 15.6119 20.0595 14.5969 21.2506 13.2494C21.4123 13.0563 21.5595 12.8556 21.7025 12.6483C21.7317 12.606 21.7609 12.5638 21.791 12.5202C22.0181 12.1659 22.1784 11.7784 22.3447 11.393C22.4309 11.1938 22.5254 11 22.6221 10.8057C22.9124 10.1776 23.0183 9.49759 23.0352 8.80989C23.0363 8.77299 23.0374 8.73609 23.0386 8.69808C23.093 6.66059 22.4159 4.77594 21.019 3.27989C20.6335 2.8771 20.2248 2.46679 19.7299 2.19927C19.6948 2.19927 19.6596 2.19927 19.6233 2.19927C19.6233 2.16408 19.6233 2.12889 19.6233 2.09264C18.9008 1.6947 18.1924 1.35421 17.3909 1.14636C17.3507 1.13576 17.3106 1.12516 17.2692 1.11424C16.4812 0.922068 15.6831 0.904522 14.8767 0.909378C14.7776 0.909578 14.6785 0.909729 14.5794 0.909835C14.3218 0.910237 14.0643 0.91128 13.8067 0.912469C13.5425 0.913571 13.2784 0.914049 13.0143 0.914584C12.4984 0.915719 11.9825 0.917532 11.4667 0.919791ZM8.96103 8.91651C8.96103 11.2212 8.96103 13.5258 8.96103 15.9003C10.9842 15.9003 13.0074 15.9003 15.0918 15.9003C15.0934 14.6603 15.0934 14.6603 15.0944 13.4204C15.0948 12.915 15.0951 12.4097 15.0959 11.9043C15.0964 11.5364 15.0967 11.1684 15.0969 10.8004C15.0969 10.6054 15.0971 10.4105 15.0975 10.2155C15.0979 9.99823 15.0979 9.78094 15.0979 9.56365C15.0982 9.46598 15.0982 9.46598 15.0985 9.36634C15.0984 9.27809 15.0984 9.27809 15.0983 9.18805C15.0983 9.1366 15.0984 9.08515 15.0984 9.03214C15.1048 8.91761 15.1048 8.91761 15.0385 8.8632C14.9628 8.85799 14.8868 8.85646 14.8109 8.85643C14.7373 8.8562 14.7373 8.8562 14.6621 8.85597C14.6078 8.85608 14.5535 8.85619 14.4975 8.8563C14.4407 8.8562 14.3838 8.85611 14.3252 8.85602C14.1362 8.85578 13.9471 8.85594 13.758 8.85612C13.6271 8.85608 13.4962 8.85603 13.3653 8.85596C13.0905 8.85588 12.8156 8.856 12.5407 8.85625C12.1881 8.85655 11.8355 8.85637 11.4828 8.85606C11.2123 8.85586 10.9418 8.85592 10.6713 8.85606C10.5413 8.8561 10.4112 8.85605 10.2812 8.85593C10.0995 8.85579 9.91771 8.856 9.73596 8.8563C9.68197 8.85619 9.62799 8.85608 9.57237 8.85597C9.49803 8.8562 9.49803 8.8562 9.42219 8.85643C9.37921 8.85645 9.33623 8.85647 9.29195 8.85649C9.15676 8.86052 9.15676 8.86052 8.96103 8.91651ZM2.99015 11.3155C2.73224 11.5477 2.73224 11.5477 2.61697 11.8486C2.58178 11.8486 2.5466 11.8486 2.51034 11.8486C2.37213 12.0349 2.25655 12.2363 2.13716 12.4351C2.10222 12.4924 2.10222 12.4924 2.06657 12.5508C1.87817 12.8738 1.73446 13.2162 1.58801 13.5596C1.51594 13.7278 1.43621 13.8908 1.35415 14.0544C0.697765 15.4863 0.854774 17.3799 1.33749 18.8324C1.61211 19.57 1.97799 20.3029 2.47827 20.9128C2.5626 21.0169 2.63821 21.1241 2.71359 21.2348C2.75208 21.2865 2.79056 21.3381 2.83021 21.3914C2.8654 21.3914 2.90058 21.3914 2.93684 21.3914C2.95113 21.4233 2.96542 21.4552 2.98015 21.488C3.04341 21.6045 3.10189 21.68 3.20339 21.7646C3.23858 21.7646 3.27376 21.7646 3.31002 21.7646C3.31002 21.7998 3.31002 21.8349 3.31002 21.8712C4.39936 22.8868 5.6907 23.5266 7.14844 23.7904C7.2187 23.8045 7.2187 23.8045 7.29039 23.819C7.5148 23.8502 7.73349 23.8507 7.95975 23.8498C8.00815 23.8498 8.05656 23.8498 8.10643 23.8498C8.26565 23.8498 8.42487 23.8493 8.5841 23.8489C8.6948 23.8488 8.8055 23.8487 8.9162 23.8487C9.207 23.8485 9.4978 23.848 9.78859 23.8474C10.0856 23.8468 10.3825 23.8466 10.6795 23.8463C11.2618 23.8457 11.844 23.8448 12.4263 23.8437C12.2749 23.7283 12.1202 23.6241 11.9586 23.5235C11.53 23.2558 11.1164 22.9692 10.764 22.6036C10.6765 22.4987 10.6765 22.4987 10.5604 22.5109C10.5604 22.4757 10.5604 22.4406 10.5604 22.4043C10.5252 22.4043 10.49 22.4043 10.4537 22.4043C10.4537 22.3691 10.4537 22.3339 10.4537 22.2977C10.4186 22.2977 10.3834 22.2977 10.3471 22.2977C10.3264 22.2511 10.3264 22.2511 10.3053 22.2036C10.2356 22.0755 10.1582 21.9895 10.0572 21.8845C9.84918 21.6558 9.6722 21.4125 9.49747 21.1581C9.47164 21.1207 9.4458 21.0833 9.41919 21.0447C9.31558 20.8921 9.23304 20.768 9.17427 20.5917C9.13909 20.5917 9.1039 20.5917 9.06765 20.5917C9.05721 20.5448 9.05721 20.5448 9.04657 20.497C8.99511 20.3077 8.90062 20.1374 8.81442 19.962C8.53056 19.3677 8.33375 18.7746 8.20134 18.1294C8.18827 18.0658 8.18827 18.0658 8.17494 18.0009C8.05814 17.393 8.04638 16.782 8.04379 16.1647C8.04327 16.0864 8.04274 16.008 8.04219 15.9297C8.04076 15.719 8.03963 15.5083 8.03856 15.2977C8.03739 15.0767 8.03593 14.8558 8.03451 14.6349C8.03186 14.2175 8.02946 13.8 8.02715 13.3826C8.02451 12.907 8.02158 12.4314 8.01864 11.9558C8.01259 10.9782 8.00689 10.0007 8.00142 9.02313C6.07578 9.02313 4.32632 9.98996 2.99015 11.3155ZM22.9819 12.2751C22.9002 12.412 22.8207 12.5497 22.742 12.6883C22.4115 13.2593 22.0371 13.7639 21.5825 14.2445C21.4786 14.3529 21.4786 14.3529 21.4359 14.5142C21.3655 14.551 21.2943 14.5864 21.2227 14.6208C21.142 14.6911 21.0634 14.7635 20.9861 14.8374C19.4767 16.2164 17.5372 16.8081 15.5265 16.8175C15.455 16.8181 15.3835 16.8186 15.3119 16.8191C15.1199 16.8206 14.9278 16.8217 14.7358 16.8228C14.5343 16.8239 14.3328 16.8254 14.1313 16.8268C13.7507 16.8295 13.3701 16.8319 12.9894 16.8342C12.5557 16.8368 12.122 16.8398 11.6883 16.8427C10.797 16.8487 9.90566 16.8544 9.01434 16.8599C9.01374 16.9528 9.01332 17.0457 9.01297 17.1387C9.01272 17.1904 9.01247 17.2421 9.0122 17.2954C9.03456 18.8752 9.91918 20.3935 10.9869 21.498C11.0264 21.5403 11.0659 21.5825 11.1066 21.6261C11.8712 22.4243 12.7982 22.9307 13.802 23.3651C13.9438 23.4283 14.0808 23.4995 14.2189 23.5705C15.48 24.1312 17.0817 23.9218 18.3288 23.4466C19.6182 22.9302 20.7667 22.0256 21.5958 20.9116C21.6278 20.8692 21.6597 20.8268 21.6927 20.7831C22.7541 19.3227 23.0555 17.7603 23.0457 15.9819C23.0455 15.8744 23.0453 15.7668 23.0452 15.6593C23.0448 15.3792 23.0438 15.0991 23.0426 14.819C23.0415 14.532 23.041 14.245 23.0405 13.958C23.0393 13.397 23.0375 12.8361 23.0352 12.2751C23.0177 12.2751 23.0001 12.2751 22.9819 12.2751Z" fill="white"/>
</g>
</svg>
